<svg width="210" height="54" viewBox="0 0 210 54" fill="none" xmlns="http://www.w3.org/2000/svg">
<g clip-path="url(#clip0_128_120)">
<path fill-rule="evenodd" clip-rule="evenodd" d="M44.1803 24.9824V44.6575L38.4872 44.2611C36.4666 44.121 34.2045 44.628 32.053 45.5239C29.6637 46.5195 27.4366 47.9815 25.8364 49.5633L22.0902 53.2726L18.3439 49.5633C16.7455 47.9796 14.5184 46.5177 12.1273 45.5239C9.97578 44.628 7.71367 44.121 5.69307 44.2611L0 44.6575V24.9824H2.24367V42.2571L5.54374 42.0266C7.92385 41.8607 10.5362 42.4359 12.9846 43.4554C15.6338 44.5579 18.119 46.195 19.9184 47.9778L22.0883 50.1256L24.2619 47.9796C26.0613 46.1969 28.5465 44.5616 31.1958 43.4573C33.6441 42.4377 36.2565 41.8625 38.6366 42.0285L41.9366 42.2589V24.9843H44.1803V24.9824Z" fill="#202020"/>
<path fill-rule="evenodd" clip-rule="evenodd" d="M23.2149 43.3601V46.2657C24.7285 44.8922 31.1553 39.5365 38.7823 40.0674L39.9788 40.1504V16.1798L38.9317 16.106C32.0642 15.6285 26.1241 19.3766 23.2167 21.6313V24.5369V43.3601H23.2149ZM37.0401 35.0583C34.4056 35.1634 31.9499 35.8622 29.8076 36.7784C28.3198 37.4145 26.9851 38.1575 25.8476 38.882V37.5657C26.8911 36.9333 28.0746 36.3028 29.3689 35.7479C31.6328 34.7781 34.2397 34.0407 37.0401 33.9356V35.0583ZM37.0401 28.8435C34.4056 28.9486 31.9499 29.6473 29.8076 30.5636C28.3198 31.1997 26.9851 31.9426 25.8476 32.6672V31.3508C26.8911 30.7185 28.0746 30.088 29.3689 29.533C31.6328 28.5633 34.2397 27.8259 37.0401 27.7208V28.8435ZM37.0401 22.6287C34.4056 22.7338 31.9499 23.4325 29.8076 24.3488C28.3198 24.9849 26.9851 25.7278 25.8476 26.4524V25.136C26.8911 24.5037 28.0746 23.8732 29.3689 23.3182C31.6328 22.3485 34.2397 21.611 37.0401 21.506V22.6287ZM18.1874 38.7861C17.083 38.0929 15.8017 37.3868 14.3803 36.7784C12.1975 35.8437 9.68647 35.1358 6.99479 35.0528V33.9319C9.85423 34.0149 12.5127 34.7615 14.8172 35.7479C16.0488 36.2751 17.1807 36.8725 18.1874 37.4735V38.7861ZM18.1874 32.5713C17.083 31.8781 15.8017 31.172 14.3803 30.5636C12.1975 29.6289 9.68647 28.921 6.99479 28.838V27.7171C9.85423 27.8 12.5127 28.5467 14.8172 29.533C16.0488 30.0603 17.1807 30.6576 18.1874 31.2587V32.5713ZM18.1874 26.3565C17.083 25.6633 15.8017 24.9572 14.3803 24.3488C12.1975 23.4141 9.68647 22.7061 6.99479 22.6232V21.5023C9.85423 21.5852 12.5127 22.3319 14.8172 23.3182C16.0488 23.8455 17.1807 24.4428 18.1874 25.0438V26.3565ZM20.9731 24.5387V21.6332C18.0638 19.3784 12.1256 15.6285 5.25811 16.1079L4.21094 16.1816V40.1522L5.40745 40.0693C13.0326 39.5383 19.4594 44.894 20.9749 46.2675V43.362V24.5387H20.9731Z" fill="#202020"/>
<path fill-rule="evenodd" clip-rule="evenodd" d="M34.5033 14.1589V10.7962L42.2391 7.50535L22.0902 0L1.94141 7.50535L9.67721 10.7962V14.1589C13.0565 14.6678 16.305 15.9417 19.2695 17.6839C20.184 18.2223 21.1518 18.8491 22.0884 19.5294C23.025 18.8491 23.9929 18.2204 24.9091 17.6839C27.8755 15.9417 31.1239 14.6678 34.5033 14.1589Z" fill="#0D5EF3"/>
<path d="M62.2467 31.684L56.8187 35.594C57.5547 37.1273 58.582 38.538 59.9007 39.826C61.2194 41.114 62.768 42.1413 64.5467 42.908C66.356 43.644 68.3034 44.012 70.3887 44.012C71.8914 44.012 73.348 43.782 74.7587 43.322C76.2 42.8927 77.4727 42.2487 78.5767 41.39C79.7114 40.5313 80.6007 39.4733 81.2447 38.216C81.9194 36.928 82.2567 35.4713 82.2567 33.846C82.2567 32.4967 82.042 31.3007 81.6127 30.258C81.1834 29.2153 80.5854 28.2953 79.8187 27.498C79.0827 26.7007 78.224 26.026 77.2427 25.474C76.2614 24.8913 75.2034 24.3853 74.0687 23.956C72.566 23.4347 71.278 22.944 70.2047 22.484C69.162 22.024 68.3494 21.518 67.7667 20.966C67.2147 20.414 66.9387 19.77 66.9387 19.034C66.9387 18.3287 67.23 17.746 67.8127 17.286C68.3954 16.7953 69.2387 16.55 70.3427 16.55C71.1707 16.55 71.9374 16.7187 72.6427 17.056C73.3787 17.3627 74.038 17.8073 74.6207 18.39C75.234 18.942 75.7707 19.6013 76.2307 20.368L82.1647 17.056C81.6127 15.952 80.8154 14.8633 79.7727 13.79C78.73 12.7167 77.4114 11.8273 75.8167 11.122C74.2527 10.4167 72.3974 10.064 70.2507 10.064C68.1654 10.064 66.264 10.432 64.5467 11.168C62.86 11.8733 61.5107 12.916 60.4987 14.296C59.5174 15.676 59.0267 17.3167 59.0267 19.218C59.0267 20.8127 59.318 22.1773 59.9007 23.312C60.4834 24.416 61.2194 25.3667 62.1087 26.164C62.998 26.9307 63.9334 27.5593 64.9147 28.05C65.9267 28.5407 66.816 28.924 67.5827 29.2C69.1467 29.7827 70.404 30.304 71.3547 30.764C72.3054 31.224 72.9954 31.7147 73.4247 32.236C73.854 32.7267 74.0687 33.386 74.0687 34.214C74.0687 35.1953 73.7007 35.9773 72.9647 36.56C72.2287 37.112 71.2934 37.388 70.1587 37.388C69.0854 37.388 68.058 37.158 67.0767 36.698C66.126 36.238 65.2367 35.5787 64.4087 34.72C63.6114 33.8613 62.8907 32.8493 62.2467 31.684ZM87.5927 39.872C87.5927 41.0373 88.0067 42.034 88.8347 42.862C89.6627 43.69 90.69 44.104 91.9167 44.104C93.2047 44.104 94.2474 43.69 95.0447 42.862C95.842 42.034 96.2407 41.0373 96.2407 39.872C96.2407 38.7067 95.842 37.71 95.0447 36.882C94.2474 36.054 93.2047 35.64 91.9167 35.64C90.69 35.64 89.6627 36.054 88.8347 36.882C88.0067 37.71 87.5927 38.7067 87.5927 39.872ZM103.199 10.8V43H110.973V10.8H103.199ZM108.075 17.194H114.377C115.941 17.194 117.168 17.5467 118.057 18.252C118.946 18.9573 119.391 19.9847 119.391 21.334C119.391 22.6527 118.946 23.6647 118.057 24.37C117.168 25.0753 115.941 25.428 114.377 25.428H108.075V31.822H114.377C117.106 31.822 119.391 31.408 121.231 30.58C123.102 29.7213 124.512 28.51 125.463 26.946C126.414 25.3513 126.889 23.4807 126.889 21.334C126.889 19.126 126.414 17.24 125.463 15.676C124.512 14.112 123.102 12.916 121.231 12.088C119.391 11.2293 117.106 10.8 114.377 10.8H108.075V17.194ZM128.763 39.872C128.763 41.0373 129.177 42.034 130.005 42.862C130.833 43.69 131.86 44.104 133.087 44.104C134.375 44.104 135.417 43.69 136.215 42.862C137.012 42.034 137.411 41.0373 137.411 39.872C137.411 38.7067 137.012 37.71 136.215 36.882C135.417 36.054 134.375 35.64 133.087 35.64C131.86 35.64 130.833 36.054 130.005 36.882C129.177 37.71 128.763 38.7067 128.763 39.872ZM144.369 10.8V43H152.281V10.8H144.369Z" fill="#202020"/>
</g>
<defs>
<clipPath id="clip0_128_120">
<rect width="210" height="54" fill="white"/>
</clipPath>
</defs>
</svg>
